<svg width="40" height="36" viewBox="0 0 40 36" fill="none" xmlns="http://www.w3.org/2000/svg">
<path d="M37.0047 14.0232C35.9109 13.1259 34.5672 12.4671 33.1484 12.1118C32.9155 12.0538 32.7023 11.9237 32.5336 11.7366C32.365 11.5496 32.2479 11.3133 32.1961 11.0554C31.5867 8.0512 30.275 5.47495 28.3469 3.52289C26.1055 1.25008 23.1414 0 20 0C17.2383 0 14.6875 0.957879 12.6273 2.77076C11.2311 4.00135 10.1072 5.56849 9.34141 7.35267C9.25838 7.54789 9.13523 7.71891 8.9818 7.85206C8.82838 7.98521 8.64893 8.07679 8.45781 8.1195C6.36797 8.58633 4.48125 9.57793 3.04062 10.9828C1.05156 12.9279 0 15.5137 0 18.466C0 21.4503 1.13203 24.1717 3.18672 26.1394C5.14922 28.0145 7.79141 29.0476 10.625 29.0476H18.75V15.7886L15.8836 18.9605C15.7639 19.0929 15.6212 19.197 15.4641 19.2666C15.307 19.3362 15.1387 19.3697 14.9695 19.3652C14.8004 19.3606 14.6338 19.3181 14.4799 19.2403C14.326 19.1624 14.188 19.0507 14.0742 18.9121C13.6211 18.3614 13.6648 17.5029 14.1406 16.9764L19.1164 11.4712C19.3508 11.212 19.6686 11.0664 20 11.0664C20.3314 11.0664 20.6492 11.212 20.8836 11.4712L25.8594 16.9747C26.35 17.5185 26.3781 18.4098 25.8898 18.9553C25.774 19.0848 25.6362 19.1876 25.4843 19.258C25.3325 19.3283 25.1695 19.3648 25.0049 19.3653C24.8402 19.3658 24.6771 19.3303 24.5249 19.2608C24.3727 19.1913 24.2344 19.0893 24.118 18.9605L21.25 15.7886V29.0476H30.9375C33.3859 29.0476 35.618 28.2868 37.2227 26.9062C39.0398 25.3414 40 23.1023 40 20.4371C40 17.8487 38.9641 15.6295 37.0047 14.0232ZM18.75 34.6168C18.75 34.9836 18.8817 35.3355 19.1161 35.5949C19.3505 35.8543 19.6685 36 20 36C20.3315 36 20.6495 35.8543 20.8839 35.5949C21.1183 35.3355 21.25 34.9836 21.25 34.6168V29.0476H18.75V34.6168Z" fill="#4F0C35"/>
</svg>
